<svg width="95" height="36" viewBox="0 0 95 36" fill="none" xmlns="http://www.w3.org/2000/svg">
<g clip-path="url(#clip0)">
<path d="M34.556 12.5923L31.5735 14.796C36.2015 38.0616 -0.51418 38.0982 4.03568 14.8204L1.04906 12.6289C-3.17581 23.5582 5.94037 36.3417 17.8087 35.988C29.6893 36.3417 38.8179 23.5298 34.556 12.5923Z" fill="white"/>
<path d="M33.4163 10.0592L30.5655 12.1694C29.5474 10.1525 28.0557 8.4058 26.2149 7.07525C24.3742 5.7447 22.238 4.86899 19.9848 4.52131V20.0818L17.8086 21.8261L15.6324 20.0818V4.52131C13.373 4.86992 11.2314 5.74944 9.38735 7.08597C7.54332 8.42249 6.0508 10.177 5.03523 12.202L2.18848 10.0958C8.44557 -2.02492 27.151 -2.03712 33.4163 10.0592Z" fill="white"/>
<path d="M43.7421 3.02905H46.3173V4.44808H43.7421V11.6774H41.9937V4.44808H39.4185V3.02905H43.7421Z" fill="white"/>
<path d="M49.0487 3.02905V6.44855H52.0518V3.02905H53.8207V11.6774H52.0518V7.94076H49.0487V11.6774H47.2798V3.02905H49.0487Z" fill="white"/>
<path d="M62.0896 3.02905V4.50907H57.3299V6.62745H61.4437V8.09933H57.3299V10.2258H62.0896V11.6937H55.6104V3.02905H62.0896Z" fill="white"/>
<path d="M45.7372 15.1295C46.4131 15.6681 46.9197 16.386 47.1976 17.1991H45.3628C44.9514 16.3249 44.4084 15.841 43.7625 15.7516C43.4365 15.7103 43.1052 15.7526 42.8005 15.8743C42.4958 15.9961 42.2278 16.1932 42.0224 16.4469C41.4601 17.1334 41.1822 18.0053 41.2449 18.8864C41.1877 19.7595 41.4653 20.6218 42.0224 21.3016C42.2276 21.5556 42.4955 21.7529 42.8003 21.8747C43.1051 21.9965 43.4365 22.0386 43.7625 21.9969C44.4084 21.9034 44.935 21.4196 45.3628 20.5413H47.1976C46.8897 21.5411 46.2147 22.3909 45.3052 22.924C44.5182 23.3697 43.5931 23.5144 42.7053 23.3306C41.7912 23.1368 40.9722 22.6388 40.3851 21.9197C39.7039 21.0566 39.3606 19.9796 39.4184 18.8864C39.3887 17.7075 39.812 16.5612 40.6031 15.6784C40.9492 15.261 41.385 14.9251 41.8788 14.6951C42.3727 14.4651 42.9122 14.3468 43.4581 14.3488C44.287 14.3361 45.094 14.6125 45.7372 15.1295Z" fill="white"/>
<path d="M52.1591 14.5521C52.7387 14.5177 53.3105 14.6974 53.7635 15.0563C54.1479 15.3781 54.4188 15.8124 54.5369 16.2964C54.6563 16.7896 54.6563 17.3036 54.5369 17.7968C54.4402 18.2812 54.2176 18.7324 53.891 19.106C53.5597 19.4726 53.1051 19.708 52.6116 19.7688L55.2157 23.1883H53.0683L50.493 19.7851H49.7238V23.1883H48.0083V14.5521H52.1591ZM49.7238 18.3416H52.0686C52.2537 18.3532 52.4371 18.3006 52.5872 18.193C52.7374 18.0854 52.8449 17.9295 52.8914 17.7521C53.0272 17.3719 53.0272 16.9572 52.8914 16.577C52.8449 16.3996 52.7374 16.2436 52.5872 16.1361C52.4371 16.0285 52.2537 15.9759 52.0686 15.9874H49.7238V18.3416Z" fill="white"/>
<path d="M62.3572 14.5806V16.0403H57.5934V18.1587H61.7072V19.6306H57.5934V21.7571H62.3531V23.2249H55.8779V14.5643L62.3572 14.5806Z" fill="white"/>
<path d="M71.9175 23.233H70.0333L69.2435 21.2204H65.6727L64.8746 23.233H62.9946L66.3638 14.6945H68.5483L71.9175 23.233ZM68.6758 19.7851L67.4663 16.6705L66.2322 19.7851H68.6758Z" fill="white"/>
<path d="M75.0565 14.5521H77.6318V15.9874H75.0565V23.2167H73.3081V15.9874H70.7329V14.5521H75.0565Z" fill="white"/>
<path d="M78.5942 23.2167V14.5521H80.3179V23.2167H78.5942Z" fill="white"/>
<path d="M82.7119 14.5521L84.4314 20.2445L86.1387 14.5521H87.9076L85.2995 23.1598L85.3283 23.2167H83.51L83.5388 23.1598L80.9512 14.5521H82.7119Z" fill="white"/>
<path d="M95.0002 14.5806V16.0403H90.2365V18.1587H94.3503V19.6306H90.2365V21.7571H95.0002V23.2249H88.521V14.5643L95.0002 14.5806Z" fill="white"/>
<path d="M42.0801 26.0913L43.7873 31.7837L45.4945 26.0913H48.1315V34.7437H46.3708V28.9578L44.68 34.7437H42.8864L41.1668 28.9456V34.7437H39.4185V26.0913H42.0801Z" fill="white"/>
<path d="M56.3838 26.1198V27.5876H51.6241V29.71H55.7379V31.1779H51.6241V33.3044H56.3838V34.7722H49.9087V26.1035L56.3838 26.1198Z" fill="white"/>
<path d="M59.2139 26.0913L62.5954 31.7512V26.0913H64.3603L64.4055 34.7437H62.5954L59.2139 29.0513V34.7437H57.4614V26.0913H59.2139Z" fill="white"/>
<path d="M73.9003 34.7722H72.0203L71.2304 32.7595H67.6597L66.8616 34.7722H64.998L68.3714 26.2336H70.5558L73.9003 34.7722ZM70.6586 31.3243L69.4492 28.2097L68.215 31.3243H70.6586Z" fill="white"/>
</g>
<defs>
<clipPath id="clip0">
<rect width="95" height="35" fill="white" transform="translate(0 0.996094)"/>
</clipPath>
</defs>
</svg>
